<svg xmlns="http://www.w3.org/2000/svg" width="80.243" height="80.388" viewBox="0 0 80.243 80.388">
  <g id="Group_168" data-name="Group 168" transform="translate(-133.585 -92.663)">
    <g id="Group_38" data-name="Group 38" transform="translate(133.585 92.663)">
      <path id="Path_23" data-name="Path 23" d="M307.683,127.307a40.137,40.137,0,0,0-64.24,46.386.252.252,0,0,0,.476-.114v-2.928a2.926,2.926,0,0,0-.2-1.064,38.192,38.192,0,1,1,55.85,18.5,2.88,2.88,0,0,0-1.353,2.44h0a.337.337,0,0,0,.5.293,40.216,40.216,0,0,0,20.719-35.443A39.852,39.852,0,0,0,307.683,127.307Z" transform="translate(-239.191 -115.556)" fill="#fff"/>
      <path id="Path_24" data-name="Path 24" d="M370.505,290.381a.223.223,0,0,0-.232.271c.094.744.621.795,1.553.831.8.031.968-.1,1.082-.517.064-.234.015-.426-.3-.432A16.686,16.686,0,0,1,370.505,290.381Z" transform="translate(-341.336 -251.787)" fill="#fff"/>
      <path id="Path_25" data-name="Path 25" d="M372.069,273.017c.529.07,1.03.114,1.125-.153.076-.216-.166-.653-.624-1.17-.649-.733-1.378.46-2.057.433-.639-.025-.791.646-.1.745C370.867,272.936,371.722,272.971,372.069,273.017Z" transform="translate(-341.093 -237.041)" fill="#fff"/>
      <path id="Path_26" data-name="Path 26" d="M364.4,282.156c.036.278.126.409.743.362s.591-.25,1.579-.375a5.573,5.573,0,0,1,1.662.148c.434.21.453.572.835.344.178-.106.032-.285-.222-.688a3,3,0,0,0-.712-.781c-.354-.2-.517.177-.73.177-.249,0-.4-.376-.752-.376-.327,0-.966.707-1.82.879C364.553,281.932,364.374,281.979,364.4,282.156Z" transform="translate(-336.757 -244.454)" fill="#fff"/>
      <path id="Path_27" data-name="Path 27" d="M325.964,229.853c-.021,1.533.117,4.7-.274,5.676a4.442,4.442,0,0,1-1.414,1.809c-.05.041-.053.1.006.128a8.212,8.212,0,0,0,3.208,1.031,1.274,1.274,0,0,0,1.365-1.252,4.719,4.719,0,0,0-.187-1.208c-.126-.437-.254-1.277.489-.988,1.105.43,1.2-.067.839-.386a17.95,17.95,0,0,1-3.154-4.809c-.632-1.6.268-1.823-.489-4.387-.043-.144-.626-.067-1.048-.44s-.392-.74-.392-1.338c0-.532.916-.376,1.154-.658.218-.259.1-.292.276-1.15a.148.148,0,0,1,.154-.114c2.616.242,1.656-.878,5.287-.364,1,.142,1.746-.627,2.4-.564.687.067.392.724,1.318.887,1.474.26,1.645.4,1.965.624.366.251.384.918.322,1.473-.2,1.811-.837,2.017-1.471,3.481-.525,1.212-.284,2.909-2.974,2.977-2.247.057-4.3-1.263-5.347-1.6l-.033-.01-.056-.017a.255.255,0,0,0-.067-.009h-.016a.242.242,0,0,0-.058.009h0a.251.251,0,0,0-.055.026l-.009.006a.3.3,0,0,0,.049.5,14.387,14.387,0,0,0,4.677,2.492,4.7,4.7,0,0,0,2.96-.184.144.144,0,0,1,.22.144c0,1.525.757,2.189,1.745,3.208.007.007.106.126.171.117a1.476,1.476,0,0,0,1.331-1.576.09.09,0,0,0-.064-.08c-1.8-.453-2.853-1.356-2.406-2.381.638-1.462.519-2.234,1.14-3.261a11.241,11.241,0,0,0,1.309-2.8c.193-.612.953-.833,1.078-1.457a4.054,4.054,0,0,0,.292-1.435c-.041-.585-.215-.57-.288-1.072-.072-.486.178-.581.124-1.071a1.384,1.384,0,0,0-.571-.751c-.227-.149-.58-.149-.437-.393a1.26,1.26,0,0,1,1.142-.119.18.18,0,0,0,.249-.1,2.143,2.143,0,0,0,.055-1.236c-.211-1.051-.654-.549-1.336-1.332-.742-.851-.428-1.184.351-.746.138.078.41-.1.338-.8-.1-.934-1.943-2.669-2.651-3.232-1.18-.938-2.5-1.923-3.437-1.941a12.071,12.071,0,0,0-6.821,2.123,12.581,12.581,0,0,0-4.327,4.035,2.01,2.01,0,0,0,1.451-.383c.139-.117.456-.729.631-.837a1.8,1.8,0,0,1,.993-.08c.443.041.41-.61.764-.988a2.636,2.636,0,0,1,1.806-.834c.374-.042.665.148,1.149.06a5.7,5.7,0,0,0,1.576-.361,2.373,2.373,0,0,1,2.713.274,1.571,1.571,0,0,1,2.338.306c.329.533.788.181,1.115,1.33.074.26-.971-.049-1.309-.5-.907-1.222-2.075-.371-1.861,0a3.987,3.987,0,0,1,.5,1.545c.426,1.322,2.173.69,2.911,1.8a3.176,3.176,0,0,1,.518,2.056c0,.151-.186.266-.289.155-.547-.586-1.035-1.141-3.38-1.433a27.5,27.5,0,0,0-6.264.479.181.181,0,0,1-.213-.206,2.616,2.616,0,0,1,2.523-2.009c1.88.083,2.773-.221,3.079-.631.251-.337-.036-2.213-1.312-2.288-.619-.036-2.022,1.018-3.158.643s-1.66.138-2.068,1.168a1.39,1.39,0,0,1-1.593.68c-.339-.084-.981,1.173-1.824,1.262-1.442.151-2.35,1.493-1.781,2.067.286.289,1.391-.111,2.09-.469,1.375-.7,1.849.583,1.363.589a10.283,10.283,0,0,0-3.289,1.3c-.316.2-.471.311-.359.631a1.329,1.329,0,0,1,.063.8c-.036.363-.173.623.153.62.5,0,.569-.189,1.164-.287.779-.129.482.395-.141.569a1.4,1.4,0,0,0-1.034,1.355c-.145.915.027,1.266.3,1.546.349.359.877.522.8,1.051-.151,1.014,1.163,1.844,2.262,2.373A.984.984,0,0,0,325.964,229.853Z" transform="translate(-303.23 -188.516)" fill="#fff"/>
      <path id="Path_28" data-name="Path 28" d="M342.043,352.805c5.2-2.281,4.549-5.587,2.336-4.76-5.54,2.072-12.544,1.537-9.95,2.587,1.754.71,3.233.71,6.43-.034C344.654,349.717,337.777,354.677,342.043,352.805Z" transform="translate(-312.972 -296.623)" fill="#fff"/>
      <path id="Path_29" data-name="Path 29" d="M347.165,403.108a10.7,10.7,0,0,1-4.176-.55c-.267-.08-.254.3-.089.468a5.493,5.493,0,0,0,4.172,1.674c2.155,0,4.312-2.4,5.051-3.5.1-.144.148.037.1.2-.754,2.435-3.471,7.629-7.186,7.6-1.97-.017-3.937-.95-5.894-4.735-.48-.928-2.663-4.489-2.265-2.548.2.952,1.876,8.419,4.449,9.745,5.5,2.833,8.356,1.75,11.174-3.678,1.076-2.073,1.715-8.853,2.006-11.089C354.641,395.633,351.718,403.108,347.165,403.108Z" transform="translate(-315.273 -334.554)" fill="#fff"/>
      <path id="Path_30" data-name="Path 30" d="M458.948,380.037c-3.44-3.234-6.523-11.061-8.249-15.359-.368-.916-1.221,2.075-1.34,7.709-.218,10.335.4,12.274.5,16.561.013.532,3.582-.559,3.508-1.081-.868-6.111-1.261-10.165-2.182-15.171-.257-1.4.177-1.714.911-.169.309.649,1.447,3.916,3.554,10.528.425,1.334-.927,4.547-.083,4.185,2.766-1.187,2.7-.79,1.954-4.366C457.11,380.886,461.588,382.519,458.948,380.037Z" transform="translate(-402.93 -309.558)" fill="#fff"/>
      <path id="Path_31" data-name="Path 31" d="M342.577,379.952c3.824-.354,7.643-4.1,8.366-6.836a.333.333,0,0,0-.543-.315c-1.712,1.737-5.863,3.12-9.9,3.336-3.982.213-4.384-.464-6.075-1.572a.381.381,0,0,0-.54.507C335.357,377.745,337.547,380.418,342.577,379.952Z" transform="translate(-312.947 -315.948)" fill="#fff"/>
      <path id="Path_32" data-name="Path 32" d="M318.092,341.7c.078-.1-.63-.381-1.025-.162A2.154,2.154,0,0,0,315.981,343c-.754,4.77.359,12.952.226,16.322-.114,2.881-.769,4.7-.466,5.069.07.087,2.557,2.381,2.556,1.477,0-2.162-.394-10.8-.614-12.462C317.369,351.043,317.052,343.024,318.092,341.7Z" transform="translate(-298.781 -291.591)" fill="#fff"/>
      <path id="Path_33" data-name="Path 33" d="M421.718,372.791c.048,7.486.576,14.228-1.338,19.782-.146.423,3.116-.005,3.489-.1.418-.1.438-.789.45-1.767a156.758,156.758,0,0,0-.922-22.18C423.2,366.848,421.705,370.791,421.718,372.791Z" transform="translate(-380.38 -312.369)" fill="#fff"/>
      <path id="Path_34" data-name="Path 34" d="M276.463,237.466a.2.2,0,0,0-.361,0,8.4,8.4,0,0,0-1.34,3.888c0,.007-.3,18.981-.3,30.556a4.167,4.167,0,0,0,.833,1.96,37.188,37.188,0,0,0,2.4,3.484V272.79c0-10.774,0-30.373,0-31.435A8.355,8.355,0,0,0,276.463,237.466Z" transform="translate(-266.678 -210.47)" fill="#fff"/>
      <path id="Path_35" data-name="Path 35" d="M298,360.6a3.747,3.747,0,0,0-.355,1.84c-.071,1.962-.035,3.807-.187,5.9a25.218,25.218,0,0,1-.677,4.338,1.981,1.981,0,0,0,.509,1.954c.4.412.649.629,1.037,1.039.222.235.375.038.336-.227-.467-3.122-.893-6.4.147-6.915,1.185-.586-.64-6.969.213-7.867a2.47,2.47,0,0,0,.568-1.576C299.628,358.643,298.522,359.751,298,360.6Z" transform="translate(-284.008 -305.252)" fill="#fff"/>
      <path id="Path_36" data-name="Path 36" d="M448.877,305.259c-.873.187,1.294,3.3,1.729,4.549,1.7,4.872,1.754,8.065,3.62,12.173,1.066,2.346,2.19,5.565,2.311,3.891.221-3.041,1.081-4.45.37-5.509-1.952-2.91-4.908-13.823-6.108-15.058A2.78,2.78,0,0,0,448.877,305.259Z" transform="translate(-402.429 -263.282)" fill="#fff"/>
      <path id="Path_37" data-name="Path 37" d="M398.357,263.847a.706.706,0,0,0-.316,1.106,1.289,1.289,0,0,0,.472.1.694.694,0,0,1,.33.175,7.552,7.552,0,0,0,10.53,0,.692.692,0,0,1,.33-.175,1.29,1.29,0,0,0,.472-.1.706.706,0,0,0-.316-1.106,4.556,4.556,0,0,0-.517-.214l-4.452-18.7a1.221,1.221,0,0,1,.483-.094,1.721,1.721,0,0,1,.571.1q.212.075.434.132a4.349,4.349,0,0,0,1.078.128,5.3,5.3,0,0,0,.927-.083,29.535,29.535,0,0,0,3.328-1.1,4.31,4.31,0,0,1,1.243-.191,3.587,3.587,0,0,1,1.422.288,7.225,7.225,0,0,1,2.227,1.793l-.477.479c-.708.712-.523,1.936-.173,2.88.215.579.766,1.66,1.085,2.27a.275.275,0,0,0,.485,0,17.9,17.9,0,0,0,1.076-2.274c.322-.954.535-2.168-.173-2.88l-.482-.485a7.21,7.21,0,0,1,2.222-1.788,3.541,3.541,0,0,1,.886-.245,3.686,3.686,0,0,1,.536-.043c.078,0,.157,0,.236.009a4.408,4.408,0,0,1,1.007.182,9.329,9.329,0,0,1,.973.34,11.918,11.918,0,0,0,2.356.759l.044.006a5.286,5.286,0,0,0,.883.077,4.348,4.348,0,0,0,1.078-.128q.223-.057.434-.132a1.723,1.723,0,0,1,.571-.1,1.221,1.221,0,0,1,.483.094l-4.452,18.7a4.555,4.555,0,0,0-.518.214.706.706,0,0,0-.316,1.106,1.288,1.288,0,0,0,.472.1.7.7,0,0,1,.33.175,7.552,7.552,0,0,0,10.53,0,.692.692,0,0,1,.33-.175,1.29,1.29,0,0,0,.472-.1.706.706,0,0,0-.316-1.106,4.566,4.566,0,0,0-.517-.214l-4.427-18.6a1.572,1.572,0,0,0-.485-2.959,1.613,1.613,0,0,0-.214-.014,1.55,1.55,0,0,0-1.371.831,1.328,1.328,0,0,1-1.178.683h-.008a4.769,4.769,0,0,1-1.43-.194c-.168-.051-.339-.116-.512-.186-.661-.267-1.369-.646-2.192-.966-.135-.053-.273-.1-.415-.152a6.009,6.009,0,0,0-1.46-.325c-.195-.019-.391-.031-.589-.031-.036,0-.072,0-.108,0a5.422,5.422,0,0,0-1.919.371,5.929,5.929,0,0,0-1.315.706c-.19.133-.371.272-.543.415q-.118.1-.231.2c-.066-.058-.133-.115-.2-.172-.174-.146-.357-.288-.549-.423a5.949,5.949,0,0,0-1.34-.723,5.457,5.457,0,0,0-2.026-.376,6.063,6.063,0,0,0-2.049.356c-1.231.42-2.2,1.027-3.119,1.3a4.768,4.768,0,0,1-1.43.194h-.008a1.328,1.328,0,0,1-1.178-.683A1.549,1.549,0,0,0,404,242.06a1.615,1.615,0,0,0-.214.014,1.572,1.572,0,0,0-.485,2.959l-4.427,18.6A4.57,4.57,0,0,0,398.357,263.847Zm32.633-16.719,3.45,16.174a19.285,19.285,0,0,0-3.45-.34Zm-1.107,15.835a19.281,19.281,0,0,0-3.45.34l3.45-16.174Zm-25.223-15.835,3.45,16.174a19.262,19.262,0,0,0-3.45-.34Zm-1.107,0v15.835a19.286,19.286,0,0,0-3.45.34Z" transform="translate(-362.852 -213.87)" fill="#fff"/>
      <path id="Path_38" data-name="Path 38" d="M478.983,259.12l-.036-.014-2.043-.6c-.048,0-.1-.006-.144-.006a2.524,2.524,0,0,0-.683.095c-.449,3.455-1.112,7.146-1.348,9.106a15.143,15.143,0,0,1-2.969.757c-.857.191-3.068.855-3.123.891.027.03.147.394.308.891.02-.006,2.372-.651,3.413-.876a15.509,15.509,0,0,0,2.977-.854c.8-.344,1.471.06,2.234.353.143.055.708.284.778.317a18.513,18.513,0,0,0,.636-4.813c.007-.926,0-1.855.009-2.781C479,261.181,479.019,259.539,478.983,259.12Z" transform="translate(-417.988 -226.948)" fill="#fff"/>
      <path id="Path_39" data-name="Path 39" d="M487.055,269.078c-.057-1.315-.226-2.774-.427-5.283-.111-.014-.222-.025-.331-.044-.23-.041-.546-.091-.757-.147-.008.117.513,5.373.513,5.373s-1.107,4.658-1.479,5.562c-.3.721-.206.747-1.583.91-.954.112-3.789.553-4.324.7-.789.223-3.426,1.2-3.4,1.2l1.375,4.027c.121.252.268.578.33.714a.076.076,0,0,0,.095.041,27.023,27.023,0,0,0,5.027-3.139c.906-.716,2.118-1.737,3.127-2.653Z" transform="translate(-423.15 -230.923)" fill="#fff"/>
      <path id="Path_40" data-name="Path 40" d="M482.135,222.466a7.878,7.878,0,0,1,.771.5,7.921,7.921,0,0,1,.763-.491c-.012-1.534-.026-3.326-.042-4.369-.353-.01-1.394-.075-1.56-.088C482.09,219.084,482.112,220.9,482.135,222.466Z" transform="translate(-428.453 -195.397)" fill="#fff"/>
      <path id="Path_41" data-name="Path 41" d="M473.138,190.99a1.448,1.448,0,0,0-.106.365.845.845,0,0,0,.087.484.217.217,0,0,0,.274.077h0c.392-.18,1.482-.654,1.642-.685a1.37,1.37,0,0,1,.158-.021c.222-.016,1.55-.045,1.633-.042a.288.288,0,0,0,.3-.216,1.185,1.185,0,0,0-.013-.47.757.757,0,0,0-.158-.349.377.377,0,0,0-.253-.127c-.315-.03-1.657-.108-1.824-.081a1.725,1.725,0,0,0-.409.15,10.722,10.722,0,0,0-1.15.673A.554.554,0,0,0,473.138,190.99Z" transform="translate(-421.408 -173.503)" fill="#fff"/>
      <path id="Path_42" data-name="Path 42" d="M481.431,168.47c0-.5-1.277-.445-1.277-.122,0,.417,0,.781,0,1.245.548-.09.836-.106,1.318-.175C481.452,169.092,481.431,168.787,481.431,168.47Z" transform="translate(-426.962 -156.502)" fill="#fff"/>
      <path id="Path_43" data-name="Path 43" d="M474.313,178.172l0,.005a.606.606,0,0,0,.589.427c.563-.006,1.54-.011,1.607-.011.178,0,.231-.007.349.2.018.031.088.225.146.333a.3.3,0,0,0,.233.155l.3.03a.217.217,0,0,0,.222-.3,2.4,2.4,0,0,1-.258-.849c-.011-.226.271-.21.459-.116a3.371,3.371,0,0,1,.775.784c.564.675,4.4,5.882,4.681,6.309.715,1.078.665.921.838,2.772.058.62.161,1.116.348,2.621.152.069.4.138.537.2.116.054.228.138.337.188-.244-2.773-.468-4.539-.546-4.942-.214-1.106-3.723-5.4-3.723-5.4l-1.837-2.387-.064-.065-1.432-1.1a.568.568,0,0,0-.29-.1,21.328,21.328,0,0,0-2.915.42C474.08,177.469,474.271,178.03,474.313,178.172Z" transform="translate(-422.362 -163.378)" fill="#fff"/>
      <path id="Path_44" data-name="Path 44" d="M477.77,210c.319,1.434,1.765,1.751,2.522,2.321a6.192,6.192,0,0,1,.242,1.536,5.333,5.333,0,0,1,.688.03c.41.071,1.611.412,1.611.412a14.417,14.417,0,0,0-.044-2.1c-.075-.75-.368-1.207-1.384-1.646a5.3,5.3,0,0,1-2.028-2,.93.93,0,0,0-1.019-.432c-.051.007-1.49.177-1.605.187-.216.019-2.106.174-2.754.284a.249.249,0,0,0-.207.243.787.787,0,0,0,.011.156c.045.341.41.568,1.8.692,0,.012,1.411.075,1.938.1A.28.28,0,0,1,477.77,210Z" transform="translate(-422.003 -187.667)" fill="#fff"/>
      <path id="Path_45" data-name="Path 45" d="M472.573,200.447a.522.522,0,0,0,.077.211.15.15,0,0,0,.131.041c.21-.012,1.6-.218,1.734-.237.265-.037,2.74-.417,2.783-.421a.264.264,0,0,0,.251-.277c-.01-.1-.019-.182-.019-.185-.022-.208-.077-.484-.468-.509a9.65,9.65,0,0,0-2.967.244,6.413,6.413,0,0,0-.859.382C472.974,199.831,472.529,200.128,472.573,200.447Z" transform="translate(-421.052 -180.625)" fill="#fff"/>
    </g>
  </g>
</svg>
