<svg id="Group_202" data-name="Group 202" xmlns="http://www.w3.org/2000/svg" width="22.721" height="22.721" viewBox="0 0 22.721 22.721">
  <path id="Path_89" data-name="Path 89" d="M407.2,474.991a.412.412,0,0,1-.059-.017v1.276a.778.778,0,1,1-1.557,0v-1a2.467,2.467,0,0,0,1.167,4.641h0a2.469,2.469,0,0,0,.45-4.9Z" transform="translate(-396.694 -463.339)" fill="#d1aa65"/>
  <path id="Path_90" data-name="Path 90" d="M385.126,428.191a11.361,11.361,0,1,0,11.36,11.361A11.36,11.36,0,0,0,385.126,428.191Zm0,5.373a1.17,1.17,0,1,1-1.17,1.17A1.171,1.171,0,0,1,385.126,433.565Zm3.945,11.955a.78.78,0,0,1-.932-.59l-.632-2.788h-.436a3.249,3.249,0,1,1-4.425-2.9.02.02,0,0,1,.015,0v-1a.773.773,0,0,1,.428-.7l1.559-.78a.785.785,0,0,1,1.128.7v2.21a3.256,3.256,0,0,1,.824.909h1.514a.778.778,0,0,1,.757.591l.78,3.38h0c0,.012.006.024.009.036A.78.78,0,0,1,389.071,445.519Z" transform="translate(-373.766 -428.191)" fill="#d1aa65"/>
</svg>
