<svg xmlns="http://www.w3.org/2000/svg" width="22.721" height="22.721" viewBox="0 0 22.721 22.721">
  <path id="Path_188" data-name="Path 188" d="M128.426,661.7a11.36,11.36,0,1,0,11.36,11.36A11.36,11.36,0,0,0,128.426,661.7Zm6,14.824a.473.473,0,0,1-.646.174l-1.408-.813-.013,1.416a.473.473,0,0,1-.473.468h0a.473.473,0,0,1-.469-.477l.018-1.951-2.534-1.463V676.8l1.7.96a.473.473,0,0,1-.465.823l-1.233-.7v1.625a.473.473,0,1,1-.946,0v-1.625l-1.233.7a.473.473,0,0,1-.466-.823l1.7-.96v-2.925l-2.534,1.461.018,1.951h0a.473.473,0,0,1-.469.477h0a.473.473,0,0,1-.473-.469l-.013-1.416-1.407.813a.473.473,0,0,1-.473-.819l1.407-.811-1.22-.719a.473.473,0,0,1,.48-.815l1.68.991,2.533-1.462-2.533-1.462-1.681.991a.473.473,0,1,1-.48-.815l1.22-.719-1.408-.813a.473.473,0,0,1,.473-.819l1.41.813.013-1.416a.473.473,0,0,1,.473-.469h0a.473.473,0,0,1,.469.477l-.02,1.951,2.533,1.462v-2.925l-1.7-.96a.473.473,0,0,1,.466-.823l1.233.7V666.6a.473.473,0,1,1,.946,0v1.626l1.233-.7a.473.473,0,0,1,.465.823l-1.7.959v2.925l2.533-1.462-.018-1.951a.473.473,0,1,1,.946-.008l.013,1.416,1.407-.813a.473.473,0,0,1,.473.819l-1.408.813,1.22.72a.473.473,0,0,1-.48.815l-1.681-.991-2.53,1.462,2.53,1.463,1.68-.991a.473.473,0,0,1,.481.815l-1.22.719,1.407.811A.474.474,0,0,1,134.427,676.519Z" transform="translate(-117.066 -661.695)" fill="#d1aa65"/>
</svg>
