<svg id="Group_201" data-name="Group 201" xmlns="http://www.w3.org/2000/svg" width="22.653" height="22.653" viewBox="0 0 22.653 22.653">
  <path id="Path_87" data-name="Path 87" d="M401.81,591.07h10.81v-.491H401.81Z" transform="translate(-395.82 -577.093)" fill="#d1aa65"/>
  <path id="Path_88" data-name="Path 88" d="M388.979,536.191a11.327,11.327,0,1,0,11.327,11.327A11.327,11.327,0,0,0,388.979,536.191Zm-4.845,8.326a1.23,1.23,0,0,1,1.228-1.228h7.368a1.23,1.23,0,0,1,1.228,1.228v1.477a.246.246,0,0,1-.246.246h-1.228a.241.241,0,0,0,.061-.008.245.245,0,0,0,.177-.3l-.153-.612a.736.736,0,0,0-.714-.558h-1.582a.738.738,0,0,0-.735.737v.491a.246.246,0,0,0,.246.245H388.31a.246.246,0,0,0,.246-.245V545.5a.738.738,0,0,0-.738-.738h-1.582a.736.736,0,0,0-.714.558l-.153.612a.241.241,0,0,0-.008.061.245.245,0,0,0,.246.245h-1.228a.246.246,0,0,1-.245-.246Zm10.81,6.877a.246.246,0,0,1-.491,0v-.737h-10.81v.739a.246.246,0,0,1-.491,0v-3.44a1.23,1.23,0,0,1,1.228-1.228h9.334a1.23,1.23,0,0,1,1.231,1.226Z" transform="translate(-377.652 -536.191)" fill="#d1aa65"/>
</svg>
