<svg xmlns="http://www.w3.org/2000/svg" width="23.721" height="23.721" viewBox="0 0 23.721 23.721">
  <path id="Subtraction_7" data-name="Subtraction 7" d="M11.361,22.721A11.361,11.361,0,0,1,3.327,3.327,11.361,11.361,0,1,1,19.394,19.394,11.286,11.286,0,0,1,11.361,22.721ZM7.221,9.2h0A8.874,8.874,0,0,0,5.93,13.37a5.423,5.423,0,0,0,9.279,3.821L7.221,9.2ZM4.643,4.128a.5.5,0,0,0-.354.853L17.725,18.416a.5.5,0,0,0,.707-.707l-2.117-2.118a5.353,5.353,0,0,0,.477-2.22,10.928,10.928,0,0,0-2.333-5.822,24.49,24.49,0,0,0-2.482-3.012l-.616-.616-.616.616a24.607,24.607,0,0,0-2.482,3L5,4.274A.5.5,0,0,0,4.643,4.128Z" transform="translate(0.5 0.5)" fill="#d1aa65" stroke="rgba(0,0,0,0)" stroke-miterlimit="10" stroke-width="1"/>
</svg>
