<svg xmlns="http://www.w3.org/2000/svg" width="23.721" height="23.721" viewBox="0 0 23.721 23.721">
  <path id="Subtraction_10" data-name="Subtraction 10" d="M11.361,22.721A11.361,11.361,0,0,1,3.327,3.327,11.361,11.361,0,1,1,19.394,19.394,11.286,11.286,0,0,1,11.361,22.721ZM5.392,11.489a6.275,6.275,0,0,0-.738.045,6.733,6.733,0,0,0,6.526,6.533,6.07,6.07,0,0,0,.052-.77,5.754,5.754,0,0,0-5.84-5.808Zm0-.867A6.655,6.655,0,0,1,12.074,17.3a6.252,6.252,0,0,1-.042.735,6.76,6.76,0,0,0,5.991-5.881,3.806,3.806,0,0,1-.446.022H17.2a6.656,6.656,0,0,1-6.678-6.678,6.914,6.914,0,0,1,.046-.789,6.8,6.8,0,0,0-5.875,5.955C4.94,10.634,5.171,10.623,5.4,10.623Zm6.026-5.969a6.031,6.031,0,0,0-.061.838A5.8,5.8,0,0,0,17.2,11.328a6.122,6.122,0,0,0,.87-.064,6.768,6.768,0,0,0-6.646-6.61Z" transform="translate(0.5 0.5)" fill="#d1aa65" stroke="rgba(0,0,0,0)" stroke-miterlimit="10" stroke-width="1"/>
</svg>
