<svg id="Group_203" data-name="Group 203" xmlns="http://www.w3.org/2000/svg" width="22.792" height="22.792" viewBox="0 0 22.792 22.792">
  <g id="Group_95" data-name="Group 95" transform="translate(0 0)">
    <path id="Path_94" data-name="Path 94" d="M659.758,669.3a10.9,10.9,0,0,0-6.99-6.99,11.458,11.458,0,0,0-14.577,14.577,10.9,10.9,0,0,0,6.99,6.99A11.458,11.458,0,0,0,659.758,669.3Zm-10.784,10.495a6.7,6.7,0,1,1,6.7-6.7A6.7,6.7,0,0,1,648.974,679.792Z" transform="translate(-637.578 -661.695)" fill="#d1aa65"/>
    <path id="Path_95" data-name="Path 95" d="M677.111,686.127l-2.255-2.1-3.151,1.131.1,2.969,3.447.655Z" transform="translate(-663.191 -678.455)" fill="#d1aa65"/>
    <path id="Path_96" data-name="Path 96" d="M658.286,706.935v.11a6.211,6.211,0,0,0,1.927,4.5l1.023-.881-1.214-3.129Z" transform="translate(-653.12 -695.649)" fill="#d1aa65"/>
    <path id="Path_97" data-name="Path 97" d="M681.128,717.174l1.7,1.768,2.59-1.107q.21-.159.405-.335l.449-2.443-2.942-.363Z" transform="translate(-670.264 -701.474)" fill="#d1aa65"/>
    <path id="Path_98" data-name="Path 98" d="M703.98,696.275v-.111a6.2,6.2,0,0,0-1.24-3.725l-.173.761,1.062,2.987Z" transform="translate(-686.354 -684.769)" fill="#d1aa65"/>
  </g>
</svg>
