<svg xmlns="http://www.w3.org/2000/svg" width="22.721" height="22.719" viewBox="0 0 22.721 22.719">
  <path id="Path_180" data-name="Path 180" d="M41.186,29.813a11.352,11.352,0,0,0-4.889,21.6l.356-6.871s-.669-.219-.815-.291c-1.419-.625-2.449-2.465-2.449-4.853,0-2.606,2.021-4.85,3.975-4.869h.007c1.954.018,3.975,2.263,3.975,4.869,0,2.388-1.032,4.227-2.447,4.853l-.822.3.4,7.639a11.136,11.136,0,0,0,6.327-.256l.352-6.808a3.65,3.65,0,0,1-2.214-1.535c-.614-.92.473-9.062.473-9.062h.707v7.64h.7v-7.64h.768v7.641h.7V34.532h.8v7.641h.7V34.532h.543s1.087,8.142.472,9.062a3.66,3.66,0,0,1-2.19,1.531l-.031.011.306,5.856a11.354,11.354,0,0,0-5.7-21.179Z" transform="translate(-29.826 -29.813)" fill="#d1aa65"/>
</svg>
