<svg xmlns="http://www.w3.org/2000/svg" width="23.721" height="23.722" viewBox="0 0 23.721 23.722">
  <g id="Group_206" data-name="Group 206" transform="translate(0.5 0.5)">
    <path id="Subtraction_1" data-name="Subtraction 1" d="M11.36,22.722A11.361,11.361,0,0,1,3.327,3.328,11.361,11.361,0,1,1,11.36,22.722ZM7.9,11.281a.125.125,0,0,0-.108.061L5.5,15.358a.249.249,0,0,0,.218.374H8.138a.253.253,0,0,1,.217.121l1.179,1.966a.247.247,0,0,0,.213.121.25.25,0,0,0,.229-.146l1.3-2.864.947-2.085a.12.12,0,0,0-.007-.118.124.124,0,0,0-.1-.058l-.023,0a4.861,4.861,0,0,1-.815.074A4.521,4.521,0,0,1,7.99,11.32.13.13,0,0,0,7.9,11.281Zm6.754,0a.123.123,0,0,0-.09.038,4.474,4.474,0,0,1-1.591,1.095.112.112,0,0,0-.067.063l-1.353,2.958a.115.115,0,0,0,0,.1l1.026,2.257a.245.245,0,0,0,.227.144.248.248,0,0,0,.215-.121L14.2,15.849a.252.252,0,0,1,.215-.119h2.426a.252.252,0,0,0,.218-.373l-2.3-4.021A.136.136,0,0,0,14.652,11.278Zm-3.375-6.9a3.954,3.954,0,0,0-3.955,3.99,4.024,4.024,0,0,0,3.921,3.923h.032A3.954,3.954,0,0,0,15.23,8.3a4.024,4.024,0,0,0-3.921-3.923Zm0,6.182a2.226,2.226,0,0,1-.146-4.447c.054,0,.1-.005.144-.005a2.227,2.227,0,0,1,.146,4.448C11.371,10.557,11.324,10.558,11.277,10.558Z" fill="#d1aa65" stroke="rgba(0,0,0,0)" stroke-miterlimit="10" stroke-width="1"/>
  </g>
</svg>
