<svg xmlns="http://www.w3.org/2000/svg" width="23.721" height="23.721" viewBox="0 0 23.721 23.721">
  <path id="Subtraction_5" data-name="Subtraction 5" d="M11.361,22.721A11.361,11.361,0,0,1,3.327,3.327,11.361,11.361,0,1,1,19.394,19.394,11.286,11.286,0,0,1,11.361,22.721Zm0-18.8h0l-.616.616c-.2.2-4.815,4.861-4.815,8.834a5.431,5.431,0,1,0,10.861,0,10.926,10.926,0,0,0-2.333-5.823,24.466,24.466,0,0,0-2.482-3.012l-.616-.616Zm0,13.07A3.624,3.624,0,0,1,7.74,13.37a.9.9,0,1,1,1.81,0,1.812,1.812,0,0,0,1.811,1.81.9.9,0,1,1,0,1.81Z" transform="translate(0.5 0.5)" fill="#d1aa65" stroke="rgba(0,0,0,0)" stroke-miterlimit="10" stroke-width="1"/>
</svg>
