<svg xmlns="http://www.w3.org/2000/svg" width="22.721" height="22.053" viewBox="0 0 22.721 22.053">
  <g id="Group_185" data-name="Group 185" transform="translate(-714.451 -189.607)">
    <path id="Path_156" data-name="Path 156" d="M725.447,189.613a11.36,11.36,0,0,0-3.667,21.976.358.358,0,0,0,.488-.332v-13.21h6.963V211.3a.358.358,0,0,0,.484.334,11.362,11.362,0,0,0-4.268-22.025Z" fill="#d1aa65"/>
    <g id="Group_184" data-name="Group 184" transform="translate(724.262 200.51)">
      <rect id="Rectangle_180" data-name="Rectangle 180" width="0.779" height="1.924" fill="#d1aa65"/>
      <rect id="Rectangle_181" data-name="Rectangle 181" width="0.779" height="1.924" transform="translate(2.199)" fill="#d1aa65"/>
      <rect id="Rectangle_182" data-name="Rectangle 182" width="0.779" height="1.924" transform="translate(0 2.657)" fill="#d1aa65"/>
      <rect id="Rectangle_183" data-name="Rectangle 183" width="0.779" height="1.924" transform="translate(2.199 2.657)" fill="#d1aa65"/>
      <rect id="Rectangle_184" data-name="Rectangle 184" width="0.779" height="1.924" transform="translate(0 5.314)" fill="#d1aa65"/>
      <rect id="Rectangle_185" data-name="Rectangle 185" width="0.779" height="1.924" transform="translate(2.199 5.314)" fill="#d1aa65"/>
      <rect id="Rectangle_186" data-name="Rectangle 186" width="0.779" height="1.924" transform="translate(0 7.971)" fill="#d1aa65"/>
      <rect id="Rectangle_187" data-name="Rectangle 187" width="0.779" height="1.924" transform="translate(2.199 7.971)" fill="#d1aa65"/>
    </g>
  </g>
</svg>
