<svg xmlns="http://www.w3.org/2000/svg" width="23.721" height="23.721" viewBox="0 0 23.721 23.721">
  <path id="Subtraction_9" data-name="Subtraction 9" d="M11.361,22.721A11.361,11.361,0,0,1,3.327,3.327,11.361,11.361,0,1,1,19.394,19.394,11.286,11.286,0,0,1,11.361,22.721ZM3.139,12.265a12.028,12.028,0,0,0-.688,1.608,5.023,5.023,0,0,0-.167,1.12,2.451,2.451,0,0,0,.472,1.339,2.754,2.754,0,0,0,1.812.9,2.958,2.958,0,0,0,2.349-1.141,3.879,3.879,0,0,0,.607-1.665c.055-1.223.034-1.912.034-1.919a18.543,18.543,0,0,0-.289-2.464,13.467,13.467,0,0,1-.2-1.574,3.586,3.586,0,0,1,.357-1.4h0l0,0a2.576,2.576,0,0,1-.436-.6,4.551,4.551,0,0,1-.274-.977L6,6.616H6A.131.131,0,0,1,6,6.63c.05.223.139.635.175.889.018.131.079.41.149.732.1.47.228,1.054.268,1.387,0,.021.325,2.064.325,2.872,0,.071,0,.145,0,.223.006.835.014,1.977-.562,2.512a2.744,2.744,0,0,1-1.788.743,1.848,1.848,0,0,1-1.812-1.16A4.939,4.939,0,0,1,3.139,12.265Zm9.195-5.243a.16.16,0,0,0-.1.045,7.485,7.485,0,0,0-.2,1.184,26.654,26.654,0,0,1-.7,3.787,6.826,6.826,0,0,1-2.714,3.615A10.6,10.6,0,0,1,6.263,17.01c.008,0,.267.027.635.027a6.776,6.776,0,0,0,1.9-.253,4.387,4.387,0,0,0,1.99-1.582,7.229,7.229,0,0,0,.741-1.594c.051-.138.1-.282.164-.439.357-1.611.54-3.148.542-3.163v1.355a16.88,16.88,0,0,0,.362,3.389c.467,1.187,1.234,1.365,1.65,1.365a1.516,1.516,0,0,0,.159-.008,1.183,1.183,0,0,0,.155.008,6.4,6.4,0,0,0,2.558-.687,4.225,4.225,0,0,1,1.962-.5,2.687,2.687,0,0,1,.57.052l.723-1.581s-.007,0-.017,0a4.607,4.607,0,0,1-.624.043,3.087,3.087,0,0,1-1.348-.272c-.2-.133-.39-.271-.574-.4a3.694,3.694,0,0,0-2.138-.952c-.643,0-1.236.793-1.762,2.356a.944.944,0,0,1-.047.13.377.377,0,0,0,.035-.043,2.908,2.908,0,0,1,1.05-.86.939.939,0,0,1,.466-.11,4.1,4.1,0,0,1,1.885.788c-.026.037-.188.222-.9.452a4.838,4.838,0,0,1-1.845.365,2.2,2.2,0,0,1-.868-.139c-.634-.448-.723-2.688-.724-2.711s-.163-2.986-.181-3.616C12.738,7.882,12.587,7.022,12.334,7.022ZM7.529,8.2c0,.019-.209,1.837.543,2.26a6.638,6.638,0,0,0,.614.353,1.518,1.518,0,0,1,.832.777,7.894,7.894,0,0,1,.9,2.034,7.053,7.053,0,0,0-.362-2.938A8.019,8.019,0,0,0,7.529,8.2Z" transform="translate(0.5 0.5)" fill="#d1aa65" stroke="rgba(0,0,0,0)" stroke-miterlimit="10" stroke-width="1"/>
</svg>
