<svg xmlns="http://www.w3.org/2000/svg" width="23.721" height="23.721" viewBox="0 0 23.721 23.721">
  <path id="Subtraction_8" data-name="Subtraction 8" d="M11.361,22.721A11.361,11.361,0,0,1,3.327,3.327,11.361,11.361,0,1,1,19.394,19.394,11.286,11.286,0,0,1,11.361,22.721ZM9.314,5.836A7.275,7.275,0,0,0,7.206,8.087C5.8,10.541,5.648,14.312,5.631,15.044a9.718,9.718,0,0,0,5.729,1.841A9.969,9.969,0,0,0,16.292,15.6a1.655,1.655,0,0,0,.8-1.412V10.828a1.639,1.639,0,0,0-1.637-.9,3.1,3.1,0,0,0-2.865,1.74A1.855,1.855,0,0,1,13,12.793a.41.41,0,0,1-.819,0c0-.59-.626-1.228-1.637-1.228A3.077,3.077,0,0,0,8.221,12.8l-.032.035a3.009,3.009,0,0,1-.225.245.405.405,0,1,1-.573-.572,1.924,1.924,0,0,0,.185-.205l.066-.076a4.325,4.325,0,0,1,.506-.517A19.349,19.349,0,0,0,8.5,7.881a.41.41,0,0,1,.41-.409h1.411l.471-.716a7.177,7.177,0,0,0-1.473-.921Z" transform="translate(0.5 0.5)" fill="#d1aa65" stroke="rgba(0,0,0,0)" stroke-miterlimit="10" stroke-width="1"/>
</svg>
