<svg xmlns="http://www.w3.org/2000/svg" width="23" height="22.721" viewBox="0 0 23 22.721">
  <path id="Subtraction_4" data-name="Subtraction 4" d="M14.033,22.721l0,0a3.189,3.189,0,0,0,.707-2.015,3.241,3.241,0,1,0-6.483,0,3.2,3.2,0,0,0,.7,2.014,11.171,11.171,0,0,1-1.488-.441,4.321,4.321,0,1,1,8.049,0,11.45,11.45,0,0,1-1.489.443ZM3.678,19.931h0A11.5,11.5,0,1,1,23,11.5a11.469,11.469,0,0,1-3.678,8.43l-2.7-1.347,1.131-3.39a.585.585,0,0,0-.549-.771.587.587,0,0,0-.19.032l-3.39,1.13-1.6-3.2a.585.585,0,0,0-1.047,0l-1.6,3.2L5.987,14.45A.6.6,0,0,0,5.8,14.42a.588.588,0,0,0-.475.247.572.572,0,0,0-.076.523l1.131,3.39-2.7,1.351ZM11.5,6.647h0l3.675,3.678a.693.693,0,0,0,.981,0,.7.7,0,0,0,0-.985L11.994,5.174a.694.694,0,0,0-.958-.02L6.842,9.339a.7.7,0,0,0,.492,1.188.684.684,0,0,0,.489-.2L11.5,6.648Z" fill="#d1aa65"/>
</svg>
