<svg xmlns="http://www.w3.org/2000/svg" width="23" height="22.721" viewBox="0 0 23 22.721">
  <path id="Subtraction_3" data-name="Subtraction 3" d="M14.033,22.721l0,0a3.188,3.188,0,0,0,.707-2.015,3.241,3.241,0,1,0-6.483,0,3.2,3.2,0,0,0,.7,2.014,11.165,11.165,0,0,1-1.489-.442,4.321,4.321,0,1,1,8.049,0,11.448,11.448,0,0,1-1.489.443ZM3.678,19.931h0A11.5,11.5,0,1,1,23,11.5a11.469,11.469,0,0,1-3.678,8.43l-2.7-1.347,1.131-3.39a.585.585,0,0,0-.549-.771.587.587,0,0,0-.19.032l-3.39,1.13-1.6-3.2a.585.585,0,0,0-1.047,0l-1.6,3.2L5.987,14.45A.6.6,0,0,0,5.8,14.42a.588.588,0,0,0-.475.247.572.572,0,0,0-.076.523l1.131,3.39-2.7,1.351ZM7.333,3.975a.7.7,0,0,0-.492,1.188l4.194,4.185a.7.7,0,0,0,.469.182.687.687,0,0,0,.489-.2L16.159,5.16a.7.7,0,0,0,0-.984.692.692,0,0,0-.981,0L11.5,7.854,7.823,4.179A.684.684,0,0,0,7.333,3.975Z" fill="#d1aa65"/>
</svg>
