<?xml version="1.0" encoding="utf-8"?>
<!-- Generator: Adobe Illustrator 26.0.1, SVG Export Plug-In . SVG Version: 6.00 Build 0)  -->
<svg version="1.1" id="Group_202" xmlns="http://www.w3.org/2000/svg" xmlns:xlink="http://www.w3.org/1999/xlink" x="0px" y="0px"
	 viewBox="0 0 22.7 22.7" style="enable-background:new 0 0 22.7 22.7;" xml:space="preserve">
<style type="text/css">
	.st0{fill:#D1AA65;}
</style>
<path class="st0" d="M11.4,0C11.4,0,11.4,0,11.4,0C5.1,0,0,5.1,0,11.4c0,6.3,5.1,11.4,11.4,11.4c6.3,0,11.4-5.1,11.4-11.4
	c0,0,0,0,0,0C22.7,5.1,17.6,0,11.4,0z M6.6,15.4l-0.7,2.7c-0.1,0.2-0.3,0.3-0.5,0.3l-0.5-0.1c-0.2,0-0.3-0.2-0.3-0.4
	c0.2-0.9,0.6-3.2,0.7-3.5c0-0.2,0.3-0.8,0.5-1.5c0.2,0.2,0.3,0.4,0.5,0.5c0.1,0.6,0.2,1.4,0.3,1.7l0,0.1c0,0,0,0,0,0.1
	C6.6,15.3,6.6,15.4,6.6,15.4z M18.4,18.2l-0.4,0.1c-0.2,0-0.3,0-0.4-0.2l-1.3-2.3l-0.1-0.5c0-0.1,0-0.1,0-0.1
	c0.1-0.3,0.3-0.8,0.6-1.4c0.1,0.2,0.3,0.3,0.3,0.4c0.1,0.1,0.2,0.2,0.2,0.3l1.3,3.2C18.8,18,18.6,18.2,18.4,18.2z M20.4,9.1
	c-0.1,0.1-0.3,0.1-0.4,0c-0.1-0.1-0.4-0.2-0.7-0.2c-0.5,0-1.4,0.1-1.8-0.6c0-0.1-0.1,0-0.1,0c-0.2,1.2-0.1,3-0.6,4
	c-0.3,1.1-0.8,2.2-1,2.7c-0.1,0.1-0.1,0.3,0,0.4l0.5,2.7c0,0.2-0.1,0.4-0.4,0.4h-0.3c-0.1,0-0.3-0.1-0.3-0.2l-1.1-3
	c-0.1-0.1-0.1-0.3,0-0.4c0.1-0.3,0.2-0.9,0.2-1.5c-1.5,0.3-3.5,0.3-5-0.2c-0.1,0.4-0.2,0.9-0.5,1.5c-0.1,0.2-0.1,0.4-0.1,0.5L9.5,18
	c0,0.2-0.1,0.4-0.3,0.5l-0.5,0.1c-0.2,0-0.3-0.1-0.4-0.2c-0.3-0.8-1.2-2.9-1.2-3.2c0-0.2-0.3-1.3-0.3-2C6.2,13,5.2,11.3,5.4,10
	c-1.3,0.4-0.5,2.1-1.7,3.1c-1.1,0.9-1.6,0-1.7-0.5c0-0.1,0-0.2,0.1-0.3c0.3-0.2,0.9-0.8,1.4-2.1c0.4-1.1,1.6-1.2,2.4-1.1
	c0.2-0.2,0.5-0.4,0.9-0.5c2.4-0.7,4.5,0.7,6.7-0.1c0.2-0.1,0.3-0.2,0.4-0.3c1-1.7,2.1-3.4,2.7-4.1c0.1-0.1,0.2-0.1,0.3,0
	C17.2,4.6,17.2,5,17.2,5s2.5,1.5,3.5,3.2v0c0,0.1,0.1,0.2,0.1,0.3C20.7,8.7,20.6,8.9,20.4,9.1z"/>
</svg>
