<svg xmlns="http://www.w3.org/2000/svg" width="22.72" height="22.721" viewBox="0 0 22.72 22.721">
  <path id="Path_187" data-name="Path 187" d="M267.471,661.7a11.36,11.36,0,1,0,11.36,11.36A11.36,11.36,0,0,0,267.471,661.7Zm5.511,15.5a.35.35,0,0,1-.35.35H262.31a.35.35,0,0,1-.35-.35V674.47a.35.35,0,0,1,.35-.35h10.321a.35.35,0,0,1,.35.35Zm0-5.557a.35.35,0,0,1-.35.35H262.31a.349.349,0,0,1-.35-.35v-2.727a.35.35,0,0,1,.35-.35h10.321a.35.35,0,0,1,.35.35Z" transform="translate(-256.111 -661.695)" fill="#d1aa65"/>
</svg>
