<?xml version="1.0" encoding="utf-8"?>
<!-- Generator: Adobe Illustrator 25.4.1, SVG Export Plug-In . SVG Version: 6.00 Build 0)  -->
<svg version="1.1" id="Capa_1" xmlns="http://www.w3.org/2000/svg" xmlns:xlink="http://www.w3.org/1999/xlink" x="0px" y="0px"
	 viewBox="0 0 100 100" style="enable-background:new 0 0 100 100;" xml:space="preserve">
<style type="text/css">
	.st0{fill:#FFFFFF;}
</style>
<circle id="XMLID_115_" cx="50" cy="50" r="50"/>
<path class="st0" d="M70.5,20.1h-41c-5.2,0-9.4,4.2-9.4,9.4v41c0,5.2,4.2,9.4,9.4,9.4h41c5.2,0,9.4-4.2,9.4-9.4v-41
	C79.9,24.3,75.7,20.1,70.5,20.1z M64.2,27l7.5,0h0c0.7,0,1.3,0.6,1.3,1.3v7.5c0,0.7-0.6,1.3-1.3,1.3l-7.5,0c-0.7,0-1.3-0.6-1.3-1.3
	l0-7.5C62.9,27.6,63.4,27,64.2,27z M40.8,44.9c0.2-0.3,0.4-0.7,0.6-1c1.9-2.7,5-4.4,8.5-4.4c3.5,0,6.6,1.7,8.5,4.4
	c0.2,0.3,0.4,0.7,0.6,1c0.9,1.5,1.4,3.3,1.4,5.1c0,5.8-4.7,10.5-10.5,10.5S39.5,55.8,39.5,50C39.5,48.1,40,46.4,40.8,44.9z
	 M74.1,68.4c0,3.2-2.6,5.7-5.7,5.7H31.6c-3.2,0-5.7-2.6-5.7-5.7V43.9h8.9c-0.2,0.5-0.4,1.1-0.6,1.7c-0.4,1.4-0.6,2.9-0.6,4.5
	c0,9,7.3,16.4,16.4,16.4c9,0,16.4-7.3,16.4-16.4c0-1.5-0.2-3-0.6-4.5c-0.2-0.6-0.4-1.1-0.6-1.7h8.9V68.4z"/>
</svg>
