<svg xmlns="http://www.w3.org/2000/svg" width="23.721" height="23.721" viewBox="0 0 23.721 23.721">
  <path id="Subtraction_11" data-name="Subtraction 11" d="M11.361,23.721A11.363,11.363,0,0,1,7.708,1.6V6.929a.717.717,0,0,0-.269.575V8.559a.778.778,0,0,0,.787.787.823.823,0,0,0,.806-.787V7.5a.807.807,0,0,0-.269-.575V1.3A11.455,11.455,0,0,1,14,1.308v8.23a.717.717,0,0,0-.269.575v1.055a.778.778,0,0,0,.787.787.8.8,0,0,0,.806-.768V10.131a.809.809,0,0,0-.268-.575V1.613a11.362,11.362,0,0,1-3.692,22.108ZM13.479,9.978a4.718,4.718,0,0,0,1.036,9.32,4.691,4.691,0,0,0,4.7-4.737,4.728,4.728,0,0,0-3.683-4.6.411.411,0,0,1,.02.154v1.055a1.039,1.039,0,0,1-.076.422,3.128,3.128,0,0,1,2.186,2.992A3.168,3.168,0,0,1,14.5,17.745a3.143,3.143,0,0,1-.959-6.137l0-.008a1.492,1.492,0,0,1-.074-.414V10.131a.521.521,0,0,1,.011-.092A.377.377,0,0,0,13.479,9.978ZM7.189,7.35a4.721,4.721,0,1,0,2.685,9.033,4.77,4.77,0,0,1-.326-1.572,3.051,3.051,0,0,1-1.323.287,3.135,3.135,0,0,1-.978-6.117l0-.008a1.509,1.509,0,0,1-.073-.414V7.5a.522.522,0,0,1,.011-.092A.385.385,0,0,0,7.189,7.35Zm5.754,4.814A2.892,2.892,0,0,0,11.7,15.156,4.755,4.755,0,0,0,12.943,12.164Zm-3.7-4.833h0a.411.411,0,0,1,.02.154V8.54a1.023,1.023,0,0,1-.077.421,3.127,3.127,0,0,1,1.976,1.9A4.864,4.864,0,0,1,12.5,10,4.7,4.7,0,0,0,9.241,7.331Z" transform="translate(0.5 -0.5)" fill="#d1aa65" stroke="rgba(0,0,0,0)" stroke-miterlimit="10" stroke-width="1"/>
</svg>
