<svg xmlns="http://www.w3.org/2000/svg" width="22.72" height="22.72" viewBox="0 0 22.72 22.72">
  <path id="Path_190" data-name="Path 190" d="M438.884,661.7a11.36,11.36,0,1,0,11.36,11.36A11.36,11.36,0,0,0,438.884,661.7Zm5.51,12.724a.35.35,0,0,1-.35.35H440.6v3.447a.35.35,0,0,1-.35.35H437.52a.35.35,0,0,1-.35-.35v-3.447h-3.447a.35.35,0,0,1-.35-.35v-2.727a.35.35,0,0,1,.35-.35h3.447v-3.448a.35.35,0,0,1,.35-.35h2.727a.35.35,0,0,1,.35.35v3.448h3.447a.35.35,0,0,1,.35.35Z" transform="translate(-427.524 -661.695)" fill="#d1aa65"/>
</svg>
