<?xml version="1.0" encoding="utf-8"?>
<!-- Generator: Adobe Illustrator 25.4.1, SVG Export Plug-In . SVG Version: 6.00 Build 0)  -->
<svg version="1.1" id="Layer_1" xmlns="http://www.w3.org/2000/svg" xmlns:xlink="http://www.w3.org/1999/xlink" x="0px" y="0px"
	 viewBox="0 0 100 100" style="enable-background:new 0 0 100 100;" xml:space="preserve">
<style type="text/css">
	.st0{fill-opacity:0;}
</style>
<rect class="st0" width="100" height="100"/>
<path d="M50,0C22.4,0,0,22.4,0,50s22.4,50,50,50s50-22.4,50-50S77.6,0,50,0z M35.9,75.4c0,1.6-1.3,2.8-2.8,2.8h-8.4
	c-1.6,0-2.8-1.3-2.8-2.8v-31c0.1-1.6,1.3-2.8,2.8-2.8h8.4c1.6,0,2.8,1.3,2.8,2.8V75.4z M29,36c-3.9,0-7-3.2-7-7c0-3.9,3.2-7,7-7
	c3.9,0,7,3.2,7,7C36,32.8,32.9,36,29,36z M78.4,75.2c0,1.6-1.3,2.8-2.8,2.8h-6.6c-1.6,0-2.8-1.3-2.8-2.8V57.1c0-3.1-2.3-5.8-5.5-6.2
	c-0.2,0-0.4,0-0.7,0c-3.4,0-6.1,2.7-6.1,6.1v18.4c0,1.6-1.3,2.8-2.8,2.8h-6.6c-1.6,0-2.8-1.3-2.8-2.8V56.9
	c0.1-10,8.2-18.1,18.3-18.1c10.1,0,18.3,8.1,18.5,18.1V75.2z"/>
</svg>
