<svg id="Group_199" data-name="Group 199" xmlns="http://www.w3.org/2000/svg" width="22.873" height="22.873" viewBox="0 0 22.873 22.873">
  <path id="Path_79" data-name="Path 79" d="M300.151,470.932a.548.548,0,1,0,.548.548A.548.548,0,0,0,300.151,470.932Z" transform="translate(-288.715 -460.232)" fill="#d1aa65"/>
  <circle id="Ellipse_13" data-name="Ellipse 13" cx="0.548" cy="0.548" r="0.548" transform="translate(8.857 10.7)" fill="#d1aa65"/>
  <path id="Path_80" data-name="Path 80" d="M308.268,470.932a.548.548,0,1,0,.548.548A.548.548,0,0,0,308.268,470.932Z" transform="translate(-294.8 -460.232)" fill="#d1aa65"/>
  <path id="Path_81" data-name="Path 81" d="M267.547,428.191a11.436,11.436,0,1,0,11.436,11.436A11.436,11.436,0,0,0,267.547,428.191Zm5.375,13.567a1.038,1.038,0,0,1-1.038,1.038h-5.938a.162.162,0,0,0-.15.224l.748,1.816a.127.127,0,0,1-.2.145l-2.268-1.936a1.04,1.04,0,0,0-.675-.249h-.191a1.038,1.038,0,0,1-1.038-1.038v-4.5a1.038,1.038,0,0,1,1.038-1.038h8.674a1.038,1.038,0,0,1,1.038,1.038Z" transform="translate(-256.111 -428.191)" fill="#d1aa65"/>
</svg>
