<svg id="Group_208" data-name="Group 208" xmlns="http://www.w3.org/2000/svg" width="22.873" height="22.873" viewBox="0 0 22.873 22.873">
  <path id="Path_157" data-name="Path 157" d="M-2893.544,2775.255l.892.939,1.4-2.269" transform="translate(2903.756 -2763.624)" fill="none" stroke="#d1aa65" stroke-linecap="round" stroke-linejoin="round" stroke-width="0.7"/>
  <g id="Group_186" data-name="Group 186" transform="translate(0 0)">
    <path id="Path_81" data-name="Path 81" d="M267.547,428.191a11.436,11.436,0,1,0,11.436,11.436A11.436,11.436,0,0,0,267.547,428.191Zm5.375,13.567a1.038,1.038,0,0,1-1.038,1.038h-5.938a.162.162,0,0,0-.15.224l.748,1.816a.127.127,0,0,1-.2.145l-2.268-1.936a1.04,1.04,0,0,0-.675-.249h-.191a1.038,1.038,0,0,1-1.038-1.038v-4.5a1.038,1.038,0,0,1,1.038-1.038h8.674a1.038,1.038,0,0,1,1.038,1.038Z" transform="translate(-256.111 -428.191)" fill="#d1aa65"/>
  </g>
</svg>
