<svg xmlns="http://www.w3.org/2000/svg" width="22.72" height="22.72" viewBox="0 0 22.72 22.72">
  <path id="Path_189" data-name="Path 189" d="M774.623,669.274a10.861,10.861,0,0,0-6.968-6.968,11.422,11.422,0,0,0-14.531,14.531,10.861,10.861,0,0,0,6.968,6.968A11.422,11.422,0,0,0,774.623,669.274Zm-16.274.851.055-.092h0a.326.326,0,0,1,.447-.111.965.965,0,0,0,.987.005l.145-.085a1.728,1.728,0,0,1,1.763.01l.116.07a.966.966,0,0,0,.987.005l.312-.183a1.4,1.4,0,0,1,1.431.008l.282.17a.965.965,0,0,0,.987.005l.145-.085a1.728,1.728,0,0,1,1.762.01l.117.07a.966.966,0,0,0,.987.005l.032-.018a.326.326,0,0,1,.44.118l.054.092a.326.326,0,0,1-.116.444l-.032.018a1.728,1.728,0,0,1-1.761-.01l-.117-.07a.967.967,0,0,0-.987-.006l-.312.183a1.4,1.4,0,0,1-1.428-.008l-.448-.269a.641.641,0,0,0-.655,0l-.312.183a1.724,1.724,0,0,1-1.761-.01l-.117-.07a.967.967,0,0,0-.987-.006l-.145.085a1.728,1.728,0,0,1-1.761-.01h0A.326.326,0,0,1,758.349,670.125Zm0,2.844.055-.092h0a.326.326,0,0,1,.447-.111.967.967,0,0,0,.987.005l.145-.085a1.727,1.727,0,0,1,1.763.01l.116.07a.966.966,0,0,0,.987.005l.312-.183a1.4,1.4,0,0,1,1.431.008l.282.17a.965.965,0,0,0,.987.005l.145-.085a1.727,1.727,0,0,1,1.762.01l.117.07a.966.966,0,0,0,.987.005l.032-.018a.326.326,0,0,1,.44.118l.054.092a.326.326,0,0,1-.116.444l-.032.018a1.725,1.725,0,0,1-1.761-.01l-.117-.07a.967.967,0,0,0-.987-.005l-.312.183a1.4,1.4,0,0,1-1.428-.008l-.448-.27a.641.641,0,0,0-.655,0l-.312.183a1.728,1.728,0,0,1-1.761-.01l-.117-.07a.967.967,0,0,0-.987-.005l-.145.085a1.728,1.728,0,0,1-1.761-.01h0A.326.326,0,0,1,758.349,672.969Zm10.936,3.282-.032.018a1.725,1.725,0,0,1-1.761-.01l-.117-.07a.967.967,0,0,0-.987-.005l-.312.183a1.4,1.4,0,0,1-1.428-.008l-.283-.17a.967.967,0,0,0-.987-.005l-.312.183a1.4,1.4,0,0,1-1.429-.008l-.282-.17a.967.967,0,0,0-.987-.005l-.145.085a1.728,1.728,0,0,1-1.762-.01h0a.326.326,0,0,1-.111-.447l.055-.092h0a.326.326,0,0,1,.447-.111.967.967,0,0,0,.987.005l.145-.085a1.727,1.727,0,0,1,1.762.01l.117.07a.966.966,0,0,0,.987.005l.312-.183a1.4,1.4,0,0,1,1.431.008l.282.17a.966.966,0,0,0,.987.005l.145-.085a1.727,1.727,0,0,1,1.763.01l.117.07a.965.965,0,0,0,.987.005l.032-.018a.326.326,0,0,1,.441.118l.054.093A.326.326,0,0,1,769.285,676.251Z" transform="translate(-752.514 -661.695)" fill="#d1aa65"/>
</svg>
