<svg id="Group_204" data-name="Group 204" xmlns="http://www.w3.org/2000/svg" width="22.719" height="22.719" viewBox="0 0 22.719 22.719">
  <circle id="Ellipse_14" data-name="Ellipse 14" cx="3.761" cy="3.761" r="3.761" transform="translate(7.598 7.598)" fill="#d1aa65"/>
  <path id="Path_103" data-name="Path 103" d="M438.883,952.006a11.359,11.359,0,1,0,11.359,11.36A11.359,11.359,0,0,0,438.883,952.006Zm0,18.532a7.173,7.173,0,1,1,7.172-7.172A7.172,7.172,0,0,1,438.883,970.538Z" transform="translate(-427.524 -952.006)" fill="#d1aa65"/>
  <path id="Path_104" data-name="Path 104" d="M456.083,974.9a5.667,5.667,0,1,0,5.667,5.667A5.667,5.667,0,0,0,456.083,974.9Zm0,10.447a4.78,4.78,0,1,1,4.78-4.78A4.78,4.78,0,0,1,456.083,985.346Z" transform="translate(-444.724 -969.206)" fill="#d1aa65"/>
</svg>
