<svg xmlns="http://www.w3.org/2000/svg" width="22.876" height="22.876" viewBox="0 0 22.876 22.876">
  <path id="Path_184" data-name="Path 184" d="M267.549,536.191a11.438,11.438,0,1,0,11.438,11.438A11.438,11.438,0,0,0,267.549,536.191Zm4.859,13.5v2.853a.407.407,0,0,1-.407.407H269.09a1.6,1.6,0,0,0,.058-.407,1.63,1.63,0,0,0-3.26,0,1.6,1.6,0,0,0,.058.407h-2.911a.407.407,0,0,1-.407-.407v-2.911a1.6,1.6,0,0,0,.407.058,1.63,1.63,0,1,0,0-3.261,1.607,1.607,0,0,0-.407.058v-2.911a.408.408,0,0,1,.407-.408h2.853a1.63,1.63,0,0,1,3.26,0H272a.407.407,0,0,1,.408.408v2.853a1.63,1.63,0,1,1,0,3.261Z" transform="translate(-256.111 -536.191)" fill="#d1aa65"/>
</svg>
