<svg xmlns="http://www.w3.org/2000/svg" width="22.721" height="22.722" viewBox="0 0 22.721 22.722">
  <path id="Path_186" data-name="Path 186" d="M385.127,322.5a11.361,11.361,0,1,0,11.361,11.361A11.361,11.361,0,0,0,385.127,322.5Zm4.719,11.552c-.048.063-.1.124-.15.184l-4.326,5.3a.325.325,0,0,1-.044.044.312.312,0,0,1-.439-.044l-4.326-5.295c-.053-.06-.1-.122-.151-.186a2.826,2.826,0,1,1,4.576-3.317.175.175,0,0,0,.042.042.173.173,0,0,0,.241-.042,2.826,2.826,0,0,1,4.577,3.317Z" transform="translate(-373.766 -322.503)" fill="#d1aa65"/>
</svg>
