<svg xmlns="http://www.w3.org/2000/svg" width="22.876" height="22.875" viewBox="0 0 22.876 22.875">
  <path id="Path_181" data-name="Path 181" d="M-288.3,296.742a11.438,11.438,0,0,0-11.438,11.438A11.438,11.438,0,0,0-288.3,319.618a11.438,11.438,0,0,0,11.438-11.438A11.438,11.438,0,0,0-288.3,296.742Zm3.7,17.994a1.675,1.675,0,0,1-1.67,1.645c-1.279,0-2.558.006-3.837,0a1.575,1.575,0,0,1-1.608-1.548c-.017-2.576-.008-5.152,0-7.727a4.854,4.854,0,0,1,.1-.77.093.093,0,0,1,.159-.049c.14.142.263.265.381.393,0,0,6.246,6.23,6.425,6.428a.265.265,0,0,1,.045.164C-284.6,313.759-284.59,314.247-284.6,314.736Zm3.073.177a.323.323,0,0,1-.456,0l-12.941-12.942a.323.323,0,0,1,.01-.465.323.323,0,0,1,.446.009l3.106,3.105c.049.049.1.095.132.125l.964-2.319c-.4-.116-.526-.444-.484-.884a2.926,2.926,0,0,0,0-.538.721.721,0,0,1,.511-.83h4.16a.724.724,0,0,1,.51.834,4.371,4.371,0,0,0,0,.513c.016.564-.067.729-.513.916.211.47.441.934.628,1.414a14.164,14.164,0,0,1,.814,2.936,4.851,4.851,0,0,1,.045.614q0,1.9,0,3.8a.438.438,0,0,0,.129.311q1.475,1.469,2.945,2.942A.323.323,0,0,1-281.527,314.912Z" transform="translate(299.741 -296.742)" fill="#d1aa65"/>
</svg>
