<svg xmlns="http://www.w3.org/2000/svg" width="22.873" height="22.873" viewBox="0 0 22.873 22.873">
  <path id="Path_182" data-name="Path 182" d="M-402.6,305.948a11.434,11.434,0,0,0-13.438-8.994,11.434,11.434,0,0,0-8.994,13.438,11.434,11.434,0,0,0,13.438,8.994A11.434,11.434,0,0,0-402.6,305.948Zm-15.182-.164a.068.068,0,0,1-.106.065c-1.051-.707-2.62-1.807-3.629-2.482a.322.322,0,0,1-.081-.458.322.322,0,0,1,.44-.078c1,.67,2.152,1.455,3.166,2.135a.353.353,0,0,1,.155.26Zm3.4,9.709a3.4,3.4,0,0,1-3.269-3.107c-.033-.4-.021-.543.317-.538a3.366,3.366,0,0,1,3.331,3.23C-413.991,315.488-413.994,315.507-414.378,315.493Zm-2.987-7.229A3.383,3.383,0,0,1-414,311.531c.006.365.007.4-.3.394a3.391,3.391,0,0,1-3.34-3.037C-417.685,308.4-417.675,308.265-417.365,308.264Zm2.93.079a3.367,3.367,0,0,1-3.221-3.313c0-.2,0-.331.276-.334a3.372,3.372,0,0,1,3.38,3.212C-413.987,308.357-414,308.365-414.435,308.343Zm.627-8a3.334,3.334,0,0,1,.012,5.081A3.3,3.3,0,0,1-413.808,300.34Zm3.744,4.377a.342.342,0,0,1,.072.033,3.352,3.352,0,0,1-3.378,3.6c-.13-.005-.245,0-.264-.194A3.385,3.385,0,0,1-410.065,304.717Zm.087,3.59a3.384,3.384,0,0,1-1.436,3.02,3.215,3.215,0,0,1-1.983.6c-.148,0-.233-.042-.234-.228a3.375,3.375,0,0,1,3.512-3.423A.854.854,0,0,1-409.978,308.307Zm-2.312,7.021a6.527,6.527,0,0,1-1.09.167c-.163.021-.244-.046-.254-.236a3.364,3.364,0,0,1,3.626-3.379A3.3,3.3,0,0,1-412.29,315.328Zm6.426-1.873a.322.322,0,0,1-.448.089l-3.991-2.67a.1.1,0,0,1-.026-.134l.246-.375a.1.1,0,0,1,.135-.029c.478.32,2.957,1.976,4,2.672A.323.323,0,0,1-405.865,313.455Z" transform="translate(425.254 -296.733)" fill="#d1aa65"/>
</svg>
