<?xml version="1.0" encoding="utf-8"?>
<!-- Generator: Adobe Illustrator 25.4.1, SVG Export Plug-In . SVG Version: 6.00 Build 0)  -->
<svg className="bg-yellow-500" version="1.1" id="Layer_1" xmlns="http://www.w3.org/2000/svg" xmlns:xlink="http://www.w3.org/1999/xlink" x="0px" y="0px"
	 viewBox="0 0 100 100" style="enable-background:new 0 0 100 100;" xml:space="preserve">
<path d="M50,0C22.4,0,0,22.4,0,50s22.4,50,50,50s50-22.4,50-50S77.6,0,50,0z M78.6,44.6c-3.9-0.1-7.9-0.9-11.5-2.6
	c-1.6-0.7-3-1.6-4.5-2.6c0,8,0.1,16-0.1,24c-0.2,3.8-1.4,7.6-3.7,10.8c-3.6,5.3-9.8,8.7-16.2,8.8c-3.9,0.2-7.8-0.9-11.2-2.8
	c-5.5-3.3-9.4-9.2-10-15.6c-0.1-1.4-0.1-2.8-0.1-4.1c0.5-5.2,3.1-10.2,7.1-13.6c4.5-3.9,10.9-5.8,16.8-4.7c0.1,4.1-0.1,8.1-0.1,12.2
	c-2.7-0.9-5.9-0.7-8.3,1c-1.7,1.1-3,2.8-3.7,4.8c-0.6,1.4-0.4,3-0.4,4.4c0.7,4.5,5,8.3,9.6,7.9c3.1-0.1,6-1.8,7.6-4.4
	c0.5-0.9,1.1-1.8,1.1-2.9c0.3-4.9,0.1-9.8,0.2-14.7c0.1-11.1,0.1-22.1,0.1-33.1c3.6-0.1,7.2,0,10.7-0.1c0.2,4.2,1.7,8.5,4.8,11.4
	c3.1,3,7.4,4.4,11.6,4.9V44.6z"/>
</svg>
