<svg id="Group_200" data-name="Group 200" xmlns="http://www.w3.org/2000/svg" width="22.721" height="22.721" viewBox="0 0 22.721 22.721">
  <path id="Path_82" data-name="Path 82" d="M285.278,255.856a.738.738,0,1,0,.738.738A.738.738,0,0,0,285.278,255.856Z" transform="translate(-276.484 -242.478)" fill="#d1aa65"/>
  <rect id="Rectangle_73" data-name="Rectangle 73" width="5.198" height="0.786" transform="translate(8.719 6.717)" fill="#d1aa65"/>
  <path id="Path_83" data-name="Path 83" d="M305.764,255.856a.738.738,0,1,0,.738.738A.739.739,0,0,0,305.764,255.856Z" transform="translate(-291.875 -242.478)" fill="#d1aa65"/>
  <rect id="Rectangle_74" data-name="Rectangle 74" width="7.018" height="3.682" transform="translate(7.81 7.939)" fill="#d1aa65"/>
  <path id="Path_84" data-name="Path 84" d="M263.509,202.063a11.361,11.361,0,1,0,11.361,11.361A11.361,11.361,0,0,0,263.509,202.063ZM268.72,212.2a.572.572,0,0,1-.4.546c.047,1.9-.01,3.911-.01,4.818-.036.331-.591.255-.591.255h-.145v.758a.712.712,0,0,1-1.385,0v-.758h-5.146v.758a.713.713,0,0,1-1.386,0v-.758h-.443s-.472.116-.472-.586c-.078-.91-.118-2.74-.068-4.494a.574.574,0,0,1-.376-.538v-1.114a.573.573,0,0,1,.508-.568,5.447,5.447,0,0,1,.408-1.9c.768-1.228,7.538-1.144,8.5,0a4.223,4.223,0,0,1,.475,1.9.572.572,0,0,1,.527.569Z" transform="translate(-252.148 -202.063)" fill="#d1aa65"/>
</svg>
