<svg xmlns="http://www.w3.org/2000/svg" width="22.875" height="22.875" viewBox="0 0 22.875 22.875">
  <path id="Path_183" data-name="Path 183" d="M-417.11,400.778a11.438,11.438,0,0,0-11.438,11.438,11.438,11.438,0,0,0,11.438,11.438,11.438,11.438,0,0,0,11.438-11.438A11.438,11.438,0,0,0-417.11,400.778Zm1.355,17.79-4.438-4.438a.468.468,0,0,0-.662,0,.468.468,0,0,0,0,.662l4.438,4.438c-.132.007-.319.013-.547.013a12.51,12.51,0,0,1-1.757-.125,7.774,7.774,0,0,1-4.459-2,7.774,7.774,0,0,1-2-4.459,11.7,11.7,0,0,1-.1-2.53.468.468,0,0,1,.422-.422,11.723,11.723,0,0,1,2.53.1,7.774,7.774,0,0,1,4.459,2,7.774,7.774,0,0,1,2,4.459A12.248,12.248,0,0,1-415.755,418.568Zm4.336-.8a5.67,5.67,0,0,1-3.487,1.435,1.389,1.389,0,0,0,.068-.317c.006-.062.033-.373.034-.851l1.827-1.827a.468.468,0,0,0,0-.662.468.468,0,0,0-.662,0l-1.224,1.224c-.019-.2-.044-.416-.075-.636a11.074,11.074,0,0,0-.452-1.94q.092-.106.192-.207c1.724-1.724,4.684-1.463,4.809-1.451a.468.468,0,0,1,.422.422C-409.957,413.08-409.7,416.04-411.42,417.764Z" transform="translate(428.548 -400.778)" fill="#d1aa65"/>
</svg>
