<?xml version="1.0" encoding="utf-8"?>
<!-- Generator: Adobe Illustrator 25.4.1, SVG Export Plug-In . SVG Version: 6.00 Build 0)  -->
<svg version="1.1" id="Layer_1" xmlns="http://www.w3.org/2000/svg" xmlns:xlink="http://www.w3.org/1999/xlink" x="0px" y="0px"
	 viewBox="0 0 100 100" style="enable-background:new 0 0 100 100;" xml:space="preserve">
<g>
	<path d="M49.8,0.3C22.3,0.3,0,22.6,0,50.2S22.3,100,49.8,100s49.8-22.3,49.8-49.8S77.4,0.3,49.8,0.3z M39.7,64.7
		c-3,0-6-0.4-8.7-1.3c-0.3-0.1-0.5-0.1-0.8-0.1c-0.5,0-1,0.2-1.4,0.4L23,67.1c-0.1,0.1-0.3,0.1-0.5,0.1c-0.5,0-0.9-0.4-0.9-0.9
		c0-0.2,0.1-0.4,0.1-0.7c0-0.1,0.7-2.8,1.2-4.5c0-0.2,0.1-0.4,0.1-0.6c0-0.6-0.3-1.1-0.7-1.5c-5.6-4.1-9.2-10-9.2-16.8
		c0-12.3,12-22.2,26.7-22.2c13.4,0,24.4,8.1,26.4,18.8c-0.5-0.1-1-0.1-1.5-0.1c-13.4,0-24.4,9.1-24.4,20.4c0,1.9,0.3,3.8,0.9,5.5
		C40.7,64.7,40.2,64.7,39.7,64.7z M79.2,73.1c-0.4,0.3-0.6,0.7-0.7,1.3c0,0.1,0,0.3,0.1,0.4c0.4,1.4,1,3.7,1,3.8
		c0.1,0.1,0.1,0.4,0.1,0.5c0,0.2-0.1,0.4-0.2,0.5c-0.1,0.1-0.3,0.2-0.5,0.2c-0.1,0-0.3-0.1-0.4-0.1l-4.9-2.8
		c-0.4-0.2-0.7-0.4-1.2-0.4c-0.2,0-0.4,0-0.7,0.1c-2.2,0.7-4.7,1-7.2,1c-12.3,0-22.3-8.3-22.3-18.5c0-10.3,10-18.5,22.3-18.5
		c12.3,0,22.3,8.3,22.3,18.5C86.9,64.7,84,69.7,79.2,73.1z"/>
	<circle cx="30.9" cy="35.3" r="3.5"/>
	<circle cx="48.7" cy="35.3" r="3.5"/>
	<path d="M57.3,50.3c-1.6,0-3,1.3-3,3c0,1.6,1.3,3,3,3s3-1.3,3-3C60.3,51.6,58.9,50.3,57.3,50.3z"/>
	<path d="M72.1,50.3c-1.6,0-3,1.3-3,3c0,1.6,1.3,3,3,3c1.6,0,3-1.3,3-3C75.1,51.6,73.8,50.3,72.1,50.3z"/>
</g>
</svg>
