<?xml version="1.0" encoding="utf-8"?>
<!-- Generator: Adobe Illustrator 25.4.1, SVG Export Plug-In . SVG Version: 6.00 Build 0)  -->
<svg version="1.1" id="Capa_1" xmlns="http://www.w3.org/2000/svg" xmlns:xlink="http://www.w3.org/1999/xlink" x="0px" y="0px"
	 viewBox="0 0 100 100" style="enable-background:new 0 0 100 100;" xml:space="preserve">
<path fill="#cba051" d="M50,0C22.4,0,0,22.4,0,50s22.4,50,50,50s50-22.4,50-50S77.6,0,50,0z M44.3,78.5c-14.6,0-29.6-7.1-29.6-18.7
	c0-6.1,3.9-13.1,10.5-19.8c8.9-8.9,19.2-12.9,23.1-9c1.7,1.7,1.9,4.7,0.8,8.2C48.6,41,50.8,40,50.8,40c7.2-3,13.4-3.2,15.7,0.1
	c1.2,1.7,1.1,4.2,0,7c-0.5,1.3,0.2,1.5,1.2,1.8c4,1.3,8.5,4.3,8.5,9.6C76.2,67.4,63.5,78.5,44.3,78.5z M70.8,41.5
	c0.5-1.5,0.2-3.1-0.9-4.3c-1.1-1.2-2.7-1.7-4.2-1.4v0c-1.3,0.3-2.5-0.5-2.8-1.8c-0.3-1.3,0.5-2.5,1.8-2.8c3.1-0.7,6.4,0.3,8.6,2.8
	c2.3,2.5,2.9,5.9,1.9,8.9c-0.4,1.2-1.7,1.9-2.9,1.5C71.1,44,70.4,42.7,70.8,41.5L70.8,41.5z M84.3,45.9
	C84.3,45.9,84.3,45.9,84.3,45.9c-0.5,1.4-2,2.2-3.4,1.7c-1.4-0.5-2.2-2-1.7-3.4l0,0c1.4-4.4,0.5-9.3-2.8-13c-3.3-3.6-8.1-5-12.6-4.1
	c-1.5,0.3-2.9-0.6-3.2-2.1c-0.3-1.5,0.6-2.9,2.1-3.2h0c6.3-1.3,13.1,0.6,17.8,5.7C85.1,32.7,86.3,39.7,84.3,45.9z"/>
<path fill="#cba051" d="M44.4,58.7c-0.7-0.3-1.6,0.1-2,0.7c-0.4,0.7-0.2,1.5,0.5,1.8c0.7,0.3,1.6,0,2-0.7C45.4,59.8,45.1,59,44.4,58.7z"/>
<path fill="#cba051" d="M41.6,46.6c-11.7,1.2-20.5,8.3-19.8,16c0.8,7.7,10.8,12.9,22.5,11.8c11.7-1.2,20.5-8.3,19.8-16
	C63.4,50.7,53.3,45.5,41.6,46.6z M51.9,64.7c-2.4,5.4-9.2,8.3-15,6.4c-5.6-1.8-8-7.4-5.5-12.3c2.4-4.9,8.7-7.7,14.2-6.2
	C51.3,54,54.2,59.4,51.9,64.7z"/>
<path fill="#cba051" d="M40,60.6c-1.8-0.8-4.1,0-5.3,1.8c-1.1,1.8-0.6,3.8,1.2,4.7c1.8,0.8,4.2,0,5.4-1.8C42.4,63.4,41.8,61.4,40,60.6z"/>
</svg>
