<?xml version="1.0" encoding="utf-8"?>
<!-- Generator: Adobe Illustrator 25.4.1, SVG Export Plug-In . SVG Version: 6.00 Build 0)  -->
<svg version="1.1" id="Layer_1" xmlns="http://www.w3.org/2000/svg" xmlns:xlink="http://www.w3.org/1999/xlink" x="0px" y="0px"
	 viewBox="0 0 100 100" style="enable-background:new 0 0 100 100;" xml:space="preserve">
<g>
	<path d="M76.9,42.7c-0.7,0-1.5,0-2.2,0c-0.4,0-0.5,0.2-0.5,0.6c0,0.6,0,1.2,0,1.8c0,0,0,0,0,0c0,0.6,0,1.2,0,1.8
		c0,0.4,0.2,0.6,0.6,0.6c0.9,0,1.7,0,2.6,0c0.4,0,0.6-0.1,0.6-0.6c0-1.1,0-2.1,0-3.2C77.9,43,77.6,42.7,76.9,42.7z"/>
	<path d="M50,0C22.4,0,0,22.4,0,50s22.4,50,50,50s50-22.4,50-50S77.6,0,50,0z M84.1,39.4c0.2-1.1,1.2-1.7,2.2-1.8
		c1-0.1,2,0.5,2.4,1.4c0.7,1.7-0.4,3.5-2.2,3.6c-0.8,0-1.7,0-2.7,0C83.9,41.5,83.8,40.4,84.1,39.4z M16.7,46.3
		c-0.2,2.3-0.4,4.5-0.6,6.8c-0.3,2.8-1.1,5.5-2.8,8c-0.1-0.3-0.2-0.5-0.3-0.6c-0.7-1.5-1.3-3-2-4.5c-0.1-0.2-0.3-0.4-0.4-0.7
		c0,0,0-0.1,0-0.1c0.6-0.6,0.6-1.4,0.6-2.2c0.3-3.3,0.5-6.6,0.8-9.8c0-0.1,0-0.1,0.1-0.2c1.6,0,3.2,0,4.9,0
		C16.8,44.1,16.8,45.2,16.7,46.3z M25.6,59.3c0,2.6-1.8,4.3-4.4,4.3c-0.5,0-1.1,0-1.6,0c-0.4,0-0.6-0.1-0.8-0.5
		c-0.5-1.2-1.1-2.4-1.7-3.8c0.9,0,1.6,0,2.3,0c0.9,0,1.2-0.3,1.2-1.2c0-3.2,0-6.3,0-9.5c0-3.9,0-7.9,0-11.8c0-0.5,0.1-0.7,0.7-0.7
		c1.2,0,2.5,0,3.7,0c0.4,0,0.6,0.1,0.6,0.6C25.6,44.2,25.6,51.7,25.6,59.3z M35.1,56.4c-0.7,1.4-1.3,2.8-1.9,4.3
		c0,0.1-0.1,0.2-0.3,0.4C32.3,60,31.7,59,31.3,58c-0.9-2.1-1.2-4.3-1.3-6.6c-0.2-2.7-0.4-5.4-0.6-8.1c0-0.1,0-0.2,0-0.4
		c1.6,0,3.3,0,4.9,0c0.1,1.6,0.3,3.1,0.4,4.6c0.2,2.1,0.3,4.3,0.5,6.4c0,0.1,0,0.2,0,0.3C35.7,55,35.4,55.7,35.1,56.4z M44.4,62.4
		c-0.4,0.9-0.9,1.2-1.8,1.2c-1.6-0.1-3.3,0-4.9,0c-0.6,0-1.2-0.2-1.8-0.3c0.3-0.6,0.5-1,0.7-1.4c0.5-1.1,1-2.2,1.5-3.3
		c0.1-0.2,0.4-0.4,0.5-0.3c2.2,0.5,4.5,0.2,6.8,0.3c0.3,0,0.5,0,0.9,0C45.5,59.9,44.9,61.1,44.4,62.4z M45.9,56.3c-1.7,0-3.3,0-5,0
		c-0.5,0-1-0.2-1.4-0.4c-0.6-0.3-0.9-1-0.7-1.7c0.4-1.2,0.9-2.3,1.4-3.5c0.3-0.8,0.7-1.6,1.1-2.4c0.2-0.5,0.2-0.6-0.4-0.6
		c-0.8,0-1.6,0-2.3-0.2c-1.1-0.3-1.4-1-1.1-2c0.3-0.9,0.7-1.8,1.1-2.6c1-2.3,2.1-4.6,3.1-7c0-0.1,0-0.1,0-0.2c1.7,0,3.4,0,5.1,0
		c-0.9,2-1.8,4-2.7,6c-0.4,0.9-0.2,1.3,0.8,1.3c1,0,2.1,0,3.1,0c0.2,0,0.4,0,0.7,0c-0.7,1.5-1.3,2.9-1.9,4.3c-0.6,1.3-1.2,2.6-1.8,4
		c-0.3,0.7-0.1,1,0.7,1c0.8,0,1.6,0,2.5,0c-0.6,1.4-1.2,2.7-1.8,3.9C46.4,56.2,46.1,56.3,45.9,56.3z M64.1,63.5
		c-5.7,0-11.4,0-17.2,0c0.4-1,0.8-1.9,1.2-2.8c0.3-0.6,0.6-1.2,0.8-1.8c0.1-0.4,0.4-0.5,0.8-0.5c1.2,0,2.4,0,3.6,0
		c0.5,0,0.7-0.1,0.7-0.7c0-4.8,0-9.6,0-14.4c0-0.6-0.2-0.7-0.7-0.7c-0.8,0-1.7,0-2.6,0c0-1.6,0-3.1,0-4.6c0-0.4,0.3-0.4,0.6-0.4
		c1.6,0,3.1,0,4.7,0c2,0,4,0,5.9,0c0.5,0,0.7,0.1,0.6,0.6c0,1.4,0,2.9,0,4.4c-0.9,0-1.8,0-2.6,0c-0.5,0-0.7,0.2-0.7,0.7
		c0,4.8,0,9.7,0,14.5c0,0.5,0.2,0.7,0.6,0.7c1.3,0,2.6,0,3.9,0c0.3,0,0.5,0,0.5,0.4C64,60.4,64.1,61.9,64.1,63.5z M85.2,63.4
		c-1.4,0.2-2.8,0.1-4.2,0.2c-0.1,0-0.4-0.1-0.4-0.3c-0.6-1.3-1.2-2.6-1.8-4c0.3,0,0.5,0,0.7,0c1,0,2,0,3.1,0c1,0,1.3-0.3,1.3-1.3
		c0-1.3,0-2.5,0-3.8c0-0.9-0.6-1.6-1.5-1.6c-2.6,0-5.1,0-7.7,0c-0.2,0-0.3,0.3-0.4,0.4c-0.1,0.1,0,0.3,0,0.5c0,3.1,0,6.2,0,9.3
		c0,0.2,0,0.5,0,0.8c-0.5,0-1,0-1.5,0c-1,0-1.9,0-2.9,0c-0.5,0-0.7-0.1-0.7-0.7c0-3.2,0-6.4,0-9.5c0-0.9,0-0.9-0.9-0.9
		c-1.2,0-2.5,0-3.7,0c-0.5,0-0.7-0.2-0.6-0.7c0-1.2,0-2.5,0-3.7c0-0.5,0.1-0.7,0.7-0.7c1.3,0,2.6,0,3.9,0c0.5,0,0.7-0.2,0.7-0.7
		c0-1.1,0-2.3,0-3.4c0-0.5-0.2-0.7-0.7-0.7c-0.9,0-1.8,0-2.7,0c0-1.7,0-3.3,0-5c0.9,0,1.8,0,2.7,0c0.6,0,0.7-0.2,0.7-0.8
		c0-1.4-0.2-1.3,1.3-1.3c1.1,0,2.1,0,3.2,0c0.5,0,0.6,0.1,0.6,0.6c0,1.5-0.2,1.4,1.5,1.4c1.7,0,3.3,0.1,4.7,1
		c1.4,0.9,2.2,2.3,2.4,3.9c0.1,1.4,0.1,2.7,0.1,4.1c0,0.6,0.1,0.8,0.8,0.8c1.6,0,3,0.5,4.1,1.7c0.7,0.8,1.1,1.8,1.1,2.8
		c0,2.3,0,4.7,0,7C89,61.1,87.5,63.1,85.2,63.4z"/>
</g>
</svg>
